<svg width="60" height="57" viewBox="0 0 60 57" fill="none" xmlns="http://www.w3.org/2000/svg">
<path d="M4.80371 43.9091V4.23962H9.60741V23.9194H10.0723L27.8926 4.23962H34.1684L17.5103 22.1374L34.1684 43.9091H28.3574L14.5661 25.469L9.60741 31.0475V43.9091H4.80371Z" fill="black"/>
<path d="M28.8037 43.9091V4.23962H42.6725C45.4359 4.23962 47.7151 4.71744 49.5101 5.67302C51.305 6.61568 52.6415 7.88763 53.5196 9.48886C54.3977 11.0772 54.8367 12.8399 54.8367 14.7768C54.8367 16.4814 54.5333 17.8889 53.9264 18.9995C53.3324 20.11 52.5447 20.9881 51.5633 21.6337C50.5948 22.2794 49.5424 22.7572 48.406 23.0671V23.4545C49.6198 23.532 50.8401 23.9581 52.0669 24.733C53.2936 25.5077 54.3202 26.6183 55.1465 28.0645C55.9729 29.5108 56.3864 31.2799 56.3864 33.3719C56.3864 35.3605 55.9342 37.149 55.0304 38.7373C54.1265 40.3256 52.6996 41.5847 50.7497 42.5144C48.7999 43.4442 46.2624 43.9091 43.1374 43.9091H28.8037ZM33.6074 39.6477H43.1374C46.2753 39.6477 48.5029 39.0408 49.82 37.8269C51.1501 36.6002 51.8151 35.1151 51.8151 33.3719C51.8151 32.0289 51.4729 30.7892 50.7885 29.6528C50.1041 28.5036 49.1291 27.5868 47.8636 26.9023C46.5981 26.205 45.1002 25.8564 43.3699 25.8564H33.6074V39.6477ZM33.6074 21.6725H42.5176C43.9639 21.6725 45.2681 21.3884 46.4303 20.8202C47.6054 20.252 48.5351 19.4514 49.2195 18.4183C49.9168 17.3853 50.2655 16.1714 50.2655 14.7768C50.2655 13.0336 49.6586 11.555 48.4447 10.3411C47.2309 9.11441 45.3068 8.50099 42.6725 8.50099H33.6074V21.6725Z" fill="black"/>
<path d="M56.0182 45H4.74548V53.1818H56.0182V45Z" fill="black"/>
<path d="M7.47021 51V46.6364H9.21736C9.53841 46.6364 9.80618 46.6838 10.0207 46.7793C10.2351 46.8742 10.3964 47.0062 10.5043 47.1753C10.6123 47.3433 10.6663 47.5364 10.6663 47.7551C10.6663 47.9253 10.6322 48.0753 10.564 48.2045C10.4958 48.3322 10.402 48.4374 10.2827 48.5198C10.1648 48.6011 10.0299 48.6584 9.87791 48.6927V48.7353C10.0441 48.7424 10.1996 48.7893 10.3445 48.8754C10.4908 48.9622 10.6094 49.0838 10.7003 49.2398C10.7913 49.3947 10.8367 49.5796 10.8367 49.794C10.8367 50.0258 10.7792 50.232 10.6641 50.4142C10.5505 50.5947 10.3822 50.7371 10.1591 50.8424C9.93611 50.9476 9.66125 51 9.33458 51H7.47021ZM8.3928 50.2456H9.14492C9.40205 50.2456 9.58952 50.1965 9.70745 50.0989C9.82532 49.9991 9.88429 49.8671 9.88429 49.7024C9.88429 49.5818 9.85516 49.4749 9.79691 49.3827C9.73871 49.2905 9.65558 49.218 9.54763 49.1656C9.44111 49.1127 9.31396 49.0865 9.16625 49.0865H8.3928V50.2456ZM8.3928 48.4625H9.07674C9.20318 48.4625 9.31538 48.4402 9.4134 48.3965C9.51283 48.3507 9.59094 48.2869 9.64778 48.2045C9.70603 48.1222 9.73516 48.0234 9.73516 47.9084C9.73516 47.7507 9.67903 47.6236 9.56683 47.5271C9.456 47.4305 9.29836 47.382 9.09381 47.382H8.3928V48.4625ZM13.5115 51.0638C13.1748 51.0638 12.8851 50.9956 12.6421 50.8593C12.4006 50.7218 12.2146 50.5271 12.0839 50.2756C11.9532 50.0225 11.8879 49.7236 11.8879 49.3784C11.8879 49.0418 11.9532 48.7462 12.0839 48.492C12.2146 48.2378 12.3985 48.0398 12.6357 47.8974C12.8744 47.7556 13.1542 47.6847 13.4752 47.6847C13.6911 47.6847 13.8921 47.7196 14.0782 47.7889C14.2657 47.8571 14.4291 47.9602 14.5683 48.0982C14.7089 48.2356 14.8183 48.4091 14.8964 48.618C14.9745 48.8253 15.0136 49.068 15.0136 49.3467V49.596H12.2501V49.0336H14.1592C14.1592 48.9027 14.1308 48.7871 14.0739 48.6862C14.0171 48.5853 13.9383 48.5062 13.8375 48.4494C13.738 48.3911 13.6222 48.3622 13.4901 48.3622C13.3523 48.3622 13.2302 48.3944 13.1237 48.4582C13.0186 48.5204 12.9362 48.6049 12.8765 48.7118C12.8169 48.8165 12.7863 48.9338 12.7849 49.0631V49.5982C12.7849 49.7602 12.8147 49.8998 12.8744 50.0176C12.9355 50.1354 13.0214 50.2265 13.1322 50.2904C13.243 50.3542 13.3744 50.3864 13.5263 50.3864C13.6272 50.3864 13.7195 50.3722 13.8034 50.3438C13.8872 50.3154 13.9589 50.2729 14.0186 50.2156C14.0782 50.1589 14.1237 50.0896 14.1549 50.0073L14.9944 50.0624C14.9518 50.2642 14.8645 50.4404 14.7323 50.5909C14.6017 50.7398 14.4326 50.8565 14.2252 50.9405C14.0193 51.0229 13.7813 51.0638 13.5115 51.0638ZM17.1392 51.0616C16.9304 51.0616 16.7443 51.0256 16.5809 50.9531C16.4176 50.8794 16.2883 50.7704 16.1931 50.6269C16.0994 50.4824 16.0525 50.3018 16.0525 50.0858C16.0525 49.9042 16.0859 49.7514 16.1527 49.6276C16.2194 49.5044 16.3103 49.4051 16.4254 49.3293C16.5404 49.254 16.6711 49.1973 16.8174 49.1591C16.9652 49.1209 17.12 49.0936 17.2819 49.0784C17.4723 49.0582 17.6256 49.0396 17.7421 49.0227C17.8586 49.0042 17.9431 48.9774 17.9957 48.942C18.0482 48.906 18.0745 48.8536 18.0745 48.7838V48.7713C18.0745 48.6365 18.0319 48.5318 17.9466 48.4582C17.8629 48.384 17.7436 48.3474 17.5887 48.3474C17.4254 48.3474 17.2954 48.3834 17.1988 48.456C17.1022 48.5269 17.0383 48.6164 17.0071 48.7244L16.1675 48.6562C16.2102 48.4576 16.294 48.2853 16.419 48.1407C16.544 47.9945 16.7052 47.8822 16.9027 47.8042C17.1015 47.7245 17.3316 47.6847 17.593 47.6847C17.7748 47.6847 17.9488 47.706 18.115 47.7485C18.2826 47.7911 18.4311 47.8571 18.5603 47.9465C18.691 48.036 18.794 48.1511 18.8693 48.2918C18.9446 48.4309 18.9822 48.5978 18.9822 48.7925V51H18.1214V50.5462H18.0958C18.0432 50.6482 17.9729 50.7387 17.8849 50.8167C17.7968 50.8936 17.691 50.9536 17.5674 50.9978C17.4438 51.0404 17.3011 51.0616 17.1392 51.0616ZM17.3991 50.4354C17.5326 50.4354 17.6505 50.4093 17.7528 50.3564C17.8551 50.3024 17.9353 50.2304 17.9936 50.1393C18.0518 50.0482 18.0809 49.9451 18.0809 49.83V49.4831C18.0525 49.5016 18.0134 49.5185 17.9637 49.5338C17.9154 49.5485 17.8607 49.5616 17.7996 49.5747C17.7386 49.5862 17.6775 49.5965 17.6164 49.6064C17.5553 49.6151 17.4999 49.6227 17.4502 49.6298C17.3437 49.6456 17.2507 49.6702 17.1711 49.7045C17.0915 49.7384 17.0298 49.7847 16.9857 49.8431C16.9417 49.8998 16.9197 49.9707 16.9197 50.0564C16.9197 50.1796 16.9644 50.274 17.0539 50.3394C17.1448 50.4033 17.2599 50.4354 17.3991 50.4354ZM22.3851 49.6064V47.7273H23.2928V51H22.4213V50.4054H22.3873C22.3133 50.5974 22.1905 50.7513 22.0186 50.868C21.8482 50.9842 21.6401 51.0425 21.3944 51.0425C21.1756 51.0425 20.9831 50.9929 20.8169 50.8936C20.6507 50.7938 20.5208 50.6525 20.427 50.4693C20.3347 50.286 20.2878 50.0667 20.2864 49.8109V47.7273H21.1941V49.6489C21.1955 49.8425 21.2473 49.9953 21.3496 50.1071C21.4518 50.2194 21.5889 50.2756 21.7608 50.2756C21.8702 50.2756 21.9724 50.2505 22.0676 50.2009C22.1628 50.1496 22.2395 50.0744 22.2977 49.9751C22.3574 49.8758 22.3865 49.7531 22.3851 49.6064ZM26.3596 47.7273V48.4091H24.3887V47.7273H26.3596ZM24.8361 46.9429H25.7438V49.9942C25.7438 50.0782 25.7566 50.1436 25.7822 50.1905C25.8077 50.2358 25.8433 50.268 25.8887 50.286C25.9355 50.3045 25.9895 50.3138 26.0506 50.3138C26.0932 50.3138 26.1358 50.3105 26.1784 50.3034C26.2211 50.2947 26.2538 50.2882 26.2764 50.2838L26.4192 50.9596C26.3738 50.9738 26.3098 50.9902 26.2275 51.0087C26.1451 51.0284 26.045 51.0404 25.927 51.0447C25.7083 51.0534 25.5165 51.024 25.3517 50.9574C25.1884 50.8904 25.0613 50.7867 24.9704 50.6465C24.8794 50.5058 24.8347 50.328 24.8361 50.1136V46.9429ZM28.1112 52.2273C27.9962 52.2273 27.8882 52.218 27.7874 52.1994C27.6879 52.1825 27.6055 52.1607 27.5402 52.1334L27.7447 51.456C27.8512 51.4887 27.9471 51.5062 28.0324 51.5094C28.119 51.5122 28.1936 51.492 28.2561 51.4494C28.32 51.4069 28.3719 51.3344 28.4116 51.2324L28.4649 51.0938L27.2909 47.7273H28.2454L28.923 50.1305H28.9571L29.641 47.7273H30.602L29.33 51.3534C29.2689 51.5296 29.1858 51.6834 29.0807 51.8138C28.9769 51.9458 28.8456 52.0478 28.6865 52.1187C28.5274 52.1913 28.3356 52.2273 28.1112 52.2273ZM36.3782 48.6605L35.5472 48.7118C35.533 48.6404 35.5024 48.5765 35.4556 48.5198C35.4087 48.4614 35.3469 48.4156 35.2702 48.3813C35.1949 48.3458 35.1047 48.3284 34.9996 48.3284C34.859 48.3284 34.7404 48.3578 34.6438 48.4178C34.5472 48.4756 34.4989 48.5542 34.4989 48.6518C34.4989 48.7304 34.5301 48.7964 34.5926 48.8504C34.6551 48.9044 34.7624 48.9474 34.9144 48.9802L35.5067 49.0996C35.8248 49.1645 36.0621 49.2698 36.2183 49.4149C36.3746 49.5594 36.4527 49.7498 36.4527 49.986C36.4527 50.2004 36.3895 50.3885 36.2631 50.5505C36.1381 50.7125 35.9662 50.8385 35.7475 50.9296C35.5301 51.0191 35.2794 51.0638 34.9953 51.0638C34.5621 51.0638 34.2169 50.9738 33.9598 50.7933C33.7041 50.6116 33.5543 50.3645 33.5103 50.052L34.403 50.0051C34.43 50.1371 34.4953 50.238 34.599 50.3073C34.7027 50.3754 34.8355 50.4098 34.9975 50.4098C35.1566 50.4098 35.2844 50.3793 35.381 50.3182C35.479 50.2554 35.5287 50.1753 35.5301 50.0776C35.5287 49.9953 35.4939 49.9276 35.4257 49.8753C35.3576 49.8213 35.2524 49.7798 35.1104 49.7514L34.5436 49.6385C34.224 49.5747 33.9861 49.464 33.8298 49.3064C33.675 49.1482 33.5976 48.9474 33.5976 48.7031C33.5976 48.4931 33.6544 48.312 33.768 48.1598C33.8831 48.0076 34.0443 47.8904 34.2517 47.808C34.4605 47.7256 34.7049 47.6847 34.9847 47.6847C35.398 47.6847 35.7233 47.772 35.9605 47.9465C36.1991 48.1216 36.3383 48.3594 36.3782 48.6605ZM38.5575 51.0616C38.3487 51.0616 38.1626 51.0256 37.9992 50.9531C37.8359 50.8794 37.7067 50.7704 37.6115 50.6269C37.5177 50.4824 37.4709 50.3018 37.4709 50.0858C37.4709 49.9042 37.5042 49.7514 37.571 49.6276C37.6378 49.5044 37.7286 49.4051 37.8437 49.3293C37.9588 49.254 38.0895 49.1973 38.2358 49.1591C38.3835 49.1209 38.5383 49.0936 38.7003 49.0784C38.8906 49.0582 39.044 49.0396 39.1605 49.0227C39.277 49.0042 39.3615 48.9774 39.414 48.942C39.4666 48.906 39.4929 48.8536 39.4929 48.7838V48.7713C39.4929 48.6365 39.4503 48.5318 39.365 48.4582C39.2812 48.384 39.1619 48.3474 39.0071 48.3474C38.8437 48.3474 38.7137 48.3834 38.6171 48.456C38.5206 48.5269 38.4567 48.6164 38.4254 48.7244L37.5859 48.6562C37.6285 48.4576 37.7123 48.2853 37.8374 48.1407C37.9623 47.9945 38.1236 47.8822 38.321 47.8042C38.5199 47.7245 38.75 47.6847 39.0113 47.6847C39.1931 47.6847 39.3671 47.706 39.5333 47.7485C39.701 47.7911 39.8494 47.8571 39.9786 47.9465C40.1093 48.036 40.2123 48.1511 40.2876 48.2918C40.3629 48.4309 40.4006 48.5978 40.4006 48.7925V51H39.5398V50.5462H39.5142C39.4616 50.6482 39.3913 50.7387 39.3033 50.8167C39.2152 50.8936 39.1094 50.9536 38.9858 50.9978C38.8622 51.0404 38.7194 51.0616 38.5575 51.0616ZM38.8174 50.4354C38.951 50.4354 39.0689 50.4093 39.1712 50.3564C39.2734 50.3024 39.3537 50.2304 39.4119 50.1393C39.4701 50.0482 39.4992 49.9451 39.4992 49.83V49.4831C39.4709 49.5016 39.4318 49.5185 39.3821 49.5338C39.3338 49.5485 39.2791 49.5616 39.218 49.5747C39.1569 49.5862 39.0959 49.5965 39.0348 49.6064C38.9737 49.6151 38.9183 49.6227 38.8686 49.6298C38.7621 49.6456 38.669 49.6702 38.5895 49.7045C38.5099 49.7384 38.4482 49.7847 38.4041 49.8431C38.3601 49.8998 38.338 49.9707 38.338 50.0564C38.338 50.1796 38.3828 50.274 38.4723 50.3394C38.5632 50.4033 38.6782 50.4354 38.8174 50.4354ZM42.6124 46.6364V51H41.7047V46.6364H42.6124ZM45.4182 51.0638C45.0872 51.0638 44.801 50.9934 44.5595 50.8527C44.3195 50.7109 44.1341 50.5134 44.0034 50.2609C43.8728 50.0062 43.8074 49.7116 43.8074 49.3762C43.8074 49.0385 43.8728 48.7429 44.0034 48.4898C44.1341 48.2356 44.3195 48.0382 44.5595 47.8974C44.801 47.7556 45.0872 47.6847 45.4182 47.6847C45.7492 47.6847 46.0347 47.7556 46.2747 47.8974C46.5162 48.0382 46.7023 48.2356 46.833 48.4898C46.9636 48.7429 47.029 49.0385 47.029 49.3762C47.029 49.7116 46.9636 50.0062 46.833 50.2609C46.7023 50.5134 46.5162 50.7109 46.2747 50.8527C46.0347 50.9934 45.7492 51.0638 45.4182 51.0638ZM45.4224 50.3607C45.573 50.3607 45.6987 50.3182 45.7996 50.2331C45.9004 50.1464 45.9764 50.0285 46.0276 49.8791C46.0801 49.7302 46.1064 49.5605 46.1064 49.3702C46.1064 49.1798 46.0801 49.0102 46.0276 48.8607C45.9764 48.7118 45.9004 48.594 45.7996 48.5073C45.6987 48.4205 45.573 48.3769 45.4224 48.3769C45.2705 48.3769 45.1426 48.4205 45.0389 48.5073C44.9367 48.594 44.8593 48.7118 44.8067 48.8607C44.7556 49.0102 44.73 49.1798 44.73 49.3702C44.73 49.5605 44.7556 49.7302 44.8067 49.8791C44.8593 50.0285 44.9367 50.1464 45.0389 50.2331C45.1426 50.3182 45.2705 50.3607 45.4224 50.3607ZM49.1269 49.1078V51H48.2192V47.7273H49.0843V48.3049H49.1226C49.195 48.1145 49.3165 47.964 49.487 47.8527C49.6574 47.7409 49.8641 47.6847 50.107 47.6847C50.3343 47.6847 50.5324 47.7344 50.7014 47.8336C50.8704 47.9334 51.0019 48.0753 51.0956 48.2602C51.1894 48.4429 51.2362 48.6622 51.2362 48.9164V51H50.3285V49.0784C50.33 48.8776 50.2789 48.7216 50.1752 48.6093C50.0715 48.4958 49.9287 48.4391 49.7469 48.4391C49.6247 48.4391 49.5168 48.4653 49.423 48.5176C49.3307 48.5705 49.2583 48.6469 49.2057 48.7478C49.1546 48.8471 49.1283 48.9671 49.1269 49.1078Z" fill="white"/>
</svg>
